HIERARCHY
ROOT Hips
{
	OFFSET 0.000000 35.082581 0.000000
	CHANNELS 6 Xposition Yposition Zposition Xrotation Yrotation Zrotation 
	JOINT Spine
	{
		OFFSET 0.000000 6.876099 0.125700
		CHANNELS 3 Xrotation Yrotation Zrotation
		JOINT Spine1
		{
			OFFSET 0.000000 5.730043 0.104720
			CHANNELS 3 Xrotation Yrotation Zrotation
			JOINT Spine1_split
			{
				OFFSET 0.000000 5.730043 0.104720
				CHANNELS 3 Xrotation Yrotation Zrotation
				JOINT Spine2
				{
					OFFSET 0.000000 5.730043 0.104720
					CHANNELS 3 Xrotation Yrotation Zrotation
					JOINT Neck
					{
						OFFSET 0.000000 10.314075 0.188496
						CHANNELS 3 Xrotation Yrotation Zrotation
						JOINT Head
						{
							OFFSET 0.000000 7.643700 -2.377400
							CHANNELS 3 Xrotation Yrotation Zrotation
							JOINT HeadTop_End
							{
								OFFSET 0.000000 43.788605 -13.619600
								CHANNELS 3 Xrotation Yrotation Zrotation
								End Site
								{
									OFFSET 0.000000 0.000000 0.000000
								}
							}
						}
					}
					JOINT LeftShoulder
					{
						OFFSET 2.196100 4.412489 0.087492
						CHANNELS 3 Xrotation Yrotation Zrotation
						JOINT LeftShoulder_split
						{
							OFFSET 2.196100 4.412489 0.087492
							CHANNELS 3 Xrotation Yrotation Zrotation
							JOINT LeftArm
							{
								OFFSET 8.771219 -2.981674 -0.026999
								CHANNELS 3 Xrotation Yrotation Zrotation
								JOINT LeftForeArm
								{
									OFFSET 8.512804 0.000000 -0.000000
									CHANNELS 3 Xrotation Yrotation Zrotation
									JOINT LeftHand
									{
										OFFSET 18.484802 0.000000 -0.000000
										CHANNELS 3 Xrotation Yrotation Zrotation
										JOINT LeftHandThumb1
										{
											OFFSET 2.499420 -1.158070 2.653252
											CHANNELS 3 Xrotation Yrotation Zrotation
											JOINT LeftHandThumb2
											{
												OFFSET 2.370079 -1.368366 1.368366
												CHANNELS 3 Xrotation Yrotation Zrotation
												JOINT LeftHandThumb3
												{
													OFFSET 2.676727 -1.545410 1.545409
													CHANNELS 3 Xrotation Yrotation Zrotation
													JOINT LeftHandThumb4
													{
														OFFSET 1.692226 -0.977005 0.977007
														CHANNELS 3 Xrotation Yrotation Zrotation
														End Site
														{
															OFFSET 0.000000 0.000000 0.000000
														}
													}
												}
											}
										}
										JOINT LeftHandIndex1
										{
											OFFSET 7.924831 -0.457527 2.345128
											CHANNELS 3 Xrotation Yrotation Zrotation
											JOINT LeftHandIndex2
											{
												OFFSET 3.643303 0.000000 0.000000
												CHANNELS 3 Xrotation Yrotation Zrotation
												JOINT LeftHandIndex3
												{
													OFFSET 3.810799 0.000000 0.000000
													CHANNELS 3 Xrotation Yrotation Zrotation
													JOINT LeftHandIndex4
													{
														OFFSET 2.403702 0.000000 0.000000
														CHANNELS 3 Xrotation Yrotation Zrotation
														End Site
														{
															OFFSET 0.000000 0.000000 0.000000
														}
													}
												}
											}
										}
										JOINT LeftHandMiddle1
										{
											OFFSET 8.563995 0.000000 -0.000000
											CHANNELS 3 Xrotation Yrotation Zrotation
											JOINT LeftHandMiddle2
											{
												OFFSET 3.861618 0.000000 0.000000
												CHANNELS 3 Xrotation Yrotation Zrotation
												JOINT LeftHandMiddle3
												{
													OFFSET 3.701603 0.000000 0.000000
													CHANNELS 3 Xrotation Yrotation Zrotation
													JOINT LeftHandMiddle4
													{
														OFFSET 2.322544 0.000000 0.000000
														CHANNELS 3 Xrotation Yrotation Zrotation
														End Site
														{
															OFFSET 0.000000 0.000000 0.000000
														}
													}
												}
											}
										}
										JOINT LeftHandRing1
										{
											OFFSET 8.426460 -0.424637 -3.286992
											CHANNELS 3 Xrotation Yrotation Zrotation
											JOINT LeftHandRing2
											{
												OFFSET 3.126408 0.000000 0.000000
												CHANNELS 3 Xrotation Yrotation Zrotation
												JOINT LeftHandRing3
												{
													OFFSET 3.085026 0.000000 0.000000
													CHANNELS 3 Xrotation Yrotation Zrotation
													JOINT LeftHandRing4
													{
														OFFSET 1.644005 0.000000 0.000000
														CHANNELS 3 Xrotation Yrotation Zrotation
														End Site
														{
															OFFSET 0.000000 0.000000 0.000000
														}
													}
												}
											}
										}
									}
								}
							}
						}
					}
					JOINT RightShoulder
					{
						OFFSET -2.196100 4.412496 0.070690
						CHANNELS 3 Xrotation Yrotation Zrotation
						JOINT RightShoulder_split
						{
							OFFSET -2.196100 4.412496 0.070690
							CHANNELS 3 Xrotation Yrotation Zrotation
							JOINT RightArm
							{
								OFFSET -8.771282 -2.981682 -0.094208
								CHANNELS 3 Xrotation Yrotation Zrotation
								JOINT RightForeArm
								{
									OFFSET -8.494598 0.000000 0.000000
									CHANNELS 3 Xrotation Yrotation Zrotation
									JOINT RightHand
									{
										OFFSET -18.483803 0.000000 0.000001
										CHANNELS 3 Xrotation Yrotation Zrotation
										JOINT RightHandThumb1
										{
											OFFSET -2.527351 -1.008072 2.575253
											CHANNELS 3 Xrotation Yrotation Zrotation
											JOINT RightHandThumb2
											{
												OFFSET -2.321518 -1.340328 1.340329
												CHANNELS 3 Xrotation Yrotation Zrotation
												JOINT RightHandThumb3
												{
													OFFSET -2.657753 -1.534454 1.534455
													CHANNELS 3 Xrotation Yrotation Zrotation
													JOINT RightHandThumb4
													{
														OFFSET -1.807510 -1.043568 1.043567
														CHANNELS 3 Xrotation Yrotation Zrotation
														End Site
														{
															OFFSET 0.000000 0.000000 0.000000
														}
													}
												}
											}
										}
										JOINT RightHandIndex1
										{
											OFFSET -8.811420 0.015533 2.887987
											CHANNELS 3 Xrotation Yrotation Zrotation
											JOINT RightHandIndex2
											{
												OFFSET -3.537502 0.000000 0.000000
												CHANNELS 3 Xrotation Yrotation Zrotation
												JOINT RightHandIndex3
												{
													OFFSET -3.356201 0.000000 0.000000
													CHANNELS 3 Xrotation Yrotation Zrotation
													JOINT RightHandIndex4
													{
														OFFSET -1.933098 0.000000 0.000000
														CHANNELS 3 Xrotation Yrotation Zrotation
														End Site
														{
															OFFSET 0.000000 0.000000 0.000000
														}
													}
												}
											}
										}
										JOINT RightHandMiddle1
										{
											OFFSET -8.178135 0.000000 0.000000
											CHANNELS 3 Xrotation Yrotation Zrotation
											JOINT RightHandMiddle2
											{
												OFFSET -3.901302 0.000000 0.000000
												CHANNELS 3 Xrotation Yrotation Zrotation
												JOINT RightHandMiddle3
												{
													OFFSET -3.909599 0.000000 0.000000
													CHANNELS 3 Xrotation Yrotation Zrotation
													JOINT RightHandMiddle4
													{
														OFFSET -2.376003 0.000000 0.000000
														CHANNELS 3 Xrotation Yrotation Zrotation
														End Site
														{
															OFFSET 0.000000 0.000000 0.000000
														}
													}
												}
											}
										}
										JOINT RightHandRing1
										{
											OFFSET -7.559013 0.014137 -2.865403
											CHANNELS 3 Xrotation Yrotation Zrotation
											JOINT RightHandRing2
											{
												OFFSET -3.449306 0.000000 0.000000
												CHANNELS 3 Xrotation Yrotation Zrotation
												JOINT RightHandRing3
												{
													OFFSET -3.362106 0.000000 0.000000
													CHANNELS 3 Xrotation Yrotation Zrotation
													JOINT RightHandRing4
													{
														OFFSET -2.076401 0.000000 0.000000
														CHANNELS 3 Xrotation Yrotation Zrotation
														End Site
														{
															OFFSET 0.000000 0.000000 0.000000
														}
													}
												}
											}
										}
									}
								}
							}
						}
					}
				}
			}
		}
	}
	JOINT LeftUpLeg
	{
		OFFSET 10.205400 -3.823500 0.155100
		CHANNELS 3 Xrotation Yrotation Zrotation
		JOINT LeftLeg
		{
			OFFSET 0.708757 -12.982077 0.567790
			CHANNELS 3 Xrotation Yrotation Zrotation
			JOINT LeftFoot
			{
				OFFSET -0.708756 -10.717838 -2.184338
				CHANNELS 3 Xrotation Yrotation Zrotation
				JOINT LeftToeBase
				{
					OFFSET 0.108149 -7.191104 7.560241
					CHANNELS 3 Xrotation Yrotation Zrotation
					JOINT LeftToe_End
					{
						OFFSET 0.070230 0.081724 4.490308
						CHANNELS 3 Xrotation Yrotation Zrotation
						End Site
						{
							OFFSET 0.000000 0.000000 0.000000
						}
					}
				}
			}
		}
	}
	JOINT RightUpLeg
	{
		OFFSET -10.205400 -3.823500 0.005500
		CHANNELS 3 Xrotation Yrotation Zrotation
		JOINT RightLeg
		{
			OFFSET -0.708756 -12.982134 0.610632
			CHANNELS 3 Xrotation Yrotation Zrotation
			JOINT RightFoot
			{
				OFFSET 0.708754 -10.717769 -1.945823
				CHANNELS 3 Xrotation Yrotation Zrotation
				JOINT RightToeBase
				{
					OFFSET -0.108140 -7.191069 7.372968
					CHANNELS 3 Xrotation Yrotation Zrotation
					JOINT RightToe_End
					{
						OFFSET -0.070227 0.081735 4.479403
						CHANNELS 3 Xrotation Yrotation Zrotation
						End Site
						{
							OFFSET 0.000000 0.000000 0.000000
						}
					}
				}
			}
		}
	}
}
MOTION
Frames: 4
Frame Time: 0.016667
0.568308 45.992359 7.897110 -89.649347 0.344493 0.708743 1.064512 -1.166981 0.957904 -0.317529 -2.434542 0.230484 0.000000 0.000000 0.000000 -0.303419 -2.418348 0.331942 -10.007531 0.102136 -1.808070 8.692148 -2.170251 1.510695 -0.000000 0.000000 -0.000000 0.422249 -0.103003 -4.005441 0.000000 0.000000 0.000000 35.263662 -28.378545 -54.538398 -0.000015 -80.454192 0.000015 -13.958268 -3.109590 -10.085417 6.590526 -4.958678 16.122655 7.178844 21.567321 2.147317 -3.980802 36.507494 21.976018 -0.000003 0.000001 -0.000002 0.659515 4.932350 -26.024477 0.169789 1.401620 -13.813534 0.169792 1.401622 -13.813543 0.000002 -0.000002 0.000002 1.376899 6.461947 -24.994181 0.169885 1.401976 -13.817121 0.169795 1.401636 -13.813551 -0.000002 -0.000001 -0.000001 2.098700 8.644302 -21.209682 0.169799 1.401617 -13.813544 0.169795 1.401618 -13.813536 -0.000002 -0.000003 -0.000000 0.646690 1.792573 13.881914 0.000000 0.000000 0.000000 39.542943 30.913344 33.651656 -0.000027 101.347809 -0.000008 -34.905330 -9.303378 11.136947 -13.111086 7.817358 -0.096467 7.918246 -27.751665 -3.100773 -2.785621 -37.960737 -21.297262 0.000005 0.000001 -0.000002 2.082851 12.897810 37.347447 0.497042 -2.095313 26.687154 0.497048 -2.095306 26.687132 0.000001 -0.000001 0.000002 -4.321318 1.650212 38.533486 0.529976 -2.159518 27.573947 0.497637 -2.096474 26.703359 0.000001 -0.000001 -0.000003 -1.394386 -1.262388 31.742013 0.254160 -1.518997 18.997015 0.249586 -1.505613 18.823341 0.000001 0.000001 0.000000 -12.930637 14.591676 21.690459 18.367137 5.109544 -0.858682 23.922932 31.515295 -32.008285 -4.397762 -0.000004 -0.000000 0.000001 -0.000000 0.000000 -16.090901 -13.416244 -16.372045 25.206432 -4.780263 -7.396855 31.719006 -31.981370 35.498938 -9.125571 0.000040 -0.000036 -0.000001 -0.000000 0.000001 
0.564786 45.986732 7.900505 -89.670118 0.439416 0.837604 1.042916 -1.128848 0.961849 -0.418979 -2.373051 0.195800 0.000000 0.000000 0.000000 -0.397360 -2.369103 0.309556 -9.992502 0.068523 -1.711925 8.739669 -2.317846 1.567082 -0.000000 0.000000 -0.000000 0.461631 -0.727177 -4.005573 0.000000 0.000000 0.000000 35.651675 -28.307478 -54.248303 0.000016 -80.590051 0.000082 -14.391687 -3.136437 -9.670762 6.590528 -4.958673 16.122655 7.178838 21.567321 2.147317 -3.980806 36.507494 21.976019 0.000000 0.000002 -0.000000 0.659515 4.932363 -26.024481 0.169789 1.401618 -13.813533 0.169792 1.401627 -13.813547 -0.000003 0.000001 0.000002 1.376904 6.461957 -24.994176 0.169883 1.401980 -13.817120 0.169795 1.401627 -13.813557 0.000002 0.000004 0.000000 2.098705 8.644313 -21.209684 0.169800 1.401616 -13.813546 0.169795 1.401619 -13.813535 0.000007 -0.000001 -0.000001 0.607870 1.777501 13.847782 0.000000 0.000000 0.000000 37.902588 30.020054 36.590082 -0.000128 101.247138 0.000086 -36.596847 -9.378178 11.050577 -12.879207 8.193474 0.480524 7.914301 -27.717012 -3.098612 -2.799417 -37.469605 -21.193747 0.000004 -0.000005 0.000003 2.149278 12.733874 36.856865 0.492746 -2.086760 26.569576 0.467274 -2.035035 25.860927 -0.000000 0.000000 0.000002 -4.264402 1.622383 38.347349 0.526207 -2.152311 27.474086 0.488460 -2.078132 26.451142 -0.000001 0.000002 -0.000002 -1.380211 -1.295196 31.813361 0.261202 -1.539249 19.260476 0.249824 -1.506322 18.832527 0.000000 0.000001 -0.000002 -12.915640 14.428607 21.533338 18.370221 5.049221 -0.819961 24.013398 31.478505 -31.916798 -4.907040 0.000020 0.000016 -0.000000 -0.000002 0.000000 -16.174141 -13.479941 -16.718708 25.481662 -4.365854 -7.122972 31.989403 -32.021184 35.513787 -9.012238 0.000044 -0.000011 0.000000 0.000001 -0.000001 
0.573978 45.983402 7.886520 -89.706052 0.539611 0.961653 1.021542 -1.090836 0.967448 -0.521690 -2.314062 0.161337 0.000000 0.000000 0.000000 -0.492040 -2.319871 0.287192 -9.946366 0.033121 -1.614219 8.871002 -2.467348 1.625963 -0.000000 -0.000000 -0.000000 0.507648 -1.375838 -4.005879 0.000000 0.000000 0.000000 35.944495 -28.114956 -54.137097 -0.000008 -80.729250 0.000034 -14.694921 -3.140308 -9.355477 6.590524 -4.958674 16.122660 7.178846 21.567325 2.147324 -3.980808 36.507505 21.976024 -0.000005 -0.000000 -0.000002 0.659512 4.932358 -26.024477 0.169788 1.401612 -13.813537 0.169793 1.401626 -13.813543 -0.000000 -0.000001 0.000001 1.376899 6.461957 -24.994169 0.169886 1.401975 -13.817120 0.169791 1.401627 -13.813554 -0.000001 -0.000000 -0.000002 2.098704 8.644310 -21.209677 0.169796 1.401618 -13.813544 0.169795 1.401614 -13.813535 0.000000 -0.000000 -0.000001 0.569189 1.762530 13.812841 0.000000 0.000000 0.000000 35.720715 29.082099 39.718585 -0.000111 100.780111 0.000075 -38.395799 -9.656064 11.081978 -12.219787 9.247329 2.040356 7.903566 -27.622904 -3.092654 -2.841981 -36.136731 -20.915398 0.000005 -0.000003 0.000003 2.313693 12.270321 35.528117 0.481199 -2.063509 26.250427 0.390876 -1.869334 23.618630 -0.000002 -0.000000 0.000005 -4.110322 1.543912 37.842339 0.516075 -2.132736 27.202985 0.463933 -2.028116 25.766578 -0.000001 -0.000003 -0.000003 -1.341797 -1.387149 32.035845 0.281890 -1.597174 20.016006 0.251129 -1.510183 18.882598 -0.000000 -0.000002 -0.000000 -12.841032 14.270019 21.354506 18.342700 5.003331 -0.794860 24.140482 31.415356 -31.784121 -5.419540 -0.000019 0.000004 -0.000000 0.000001 -0.000000 -16.330245 -13.513951 -17.104522 25.757473 -3.975127 -6.843952 32.673422 -32.069879 35.597768 -8.902224 0.000057 -0.000025 -0.000001 -0.000004 0.000001 
0.584214 45.981136 7.869881 -89.745633 0.641102 1.086547 1.000142 -1.052539 0.968988 -0.624400 -2.255073 0.126877 0.000000 0.000000 0.000000 -0.586708 -2.270638 0.264826 -9.868826 -0.003008 -1.517638 9.081818 -2.617593 1.685803 0.000000 0.000000 0.000000 0.565013 -2.038751 -3.968447 0.000000 0.000000 0.000000 36.227832 -27.974483 -54.031219 0.000060 -80.847843 0.000076 -15.031151 -3.167386 -9.004436 6.590528 -4.958678 16.122653 7.178846 21.567326 2.147321 -3.980804 36.507491 21.976016 -0.000004 0.000001 -0.000001 0.659512 4.932361 -26.024477 0.169790 1.401621 -13.813536 0.169792 1.401629 -13.813547 0.000001 -0.000001 0.000001 1.376896 6.461956 -24.994184 0.169880 1.401979 -13.817120 0.169795 1.401629 -13.813555 0.000001 -0.000001 0.000003 2.098704 8.644306 -21.209684 0.169800 1.401620 -13.813544 0.169797 1.401620 -13.813533 0.000001 -0.000000 0.000001 0.532906 1.739987 13.779476 0.000000 0.000000 0.000000 33.134586 28.142900 42.894524 -0.000101 99.988444 0.000084 -40.318740 -10.120798 11.119195 -11.190765 10.888574 4.309752 7.887771 -27.484212 -3.083829 -2.917715 -34.172813 -20.511219 0.000002 0.000001 -0.000002 2.511591 11.547080 33.578129 0.464411 -2.029114 25.780158 0.290276 -1.620017 20.314968 -0.000000 0.000001 0.000001 -3.884900 1.421017 37.098705 0.501312 -2.103773 26.803513 0.428885 -1.953900 24.757834 0.000001 0.000001 -0.000000 -1.284666 -1.528353 32.422263 0.316153 -1.688250 21.211458 0.254434 -1.519769 19.007254 -0.000003 0.000002 0.000000 -12.774855 14.101574 21.182223 18.354334 4.947938 -0.775803 24.258884 31.353020 -31.609238 -5.936505 -0.000016 0.000006 -0.000000 -0.000001 -0.000000 -16.501764 -13.541987 -17.494063 26.004200 -3.613544 -6.567540 33.442249 -32.115508 35.690044 -8.794363 0.000047 -0.000006 0.000001 -0.000000 -0.000001 
